<svg xmlns="http://www.w3.org/2000/svg" width="76.234" height="95.2" viewBox="0 0 76.234 95.2">
  <g id="grow-up" transform="translate(-50.999 0.001)">
    <path id="Trazado_9145" data-name="Trazado 9145" d="M124.444,95.2H53.788a2.789,2.789,0,0,1-1.925-4.807l3.811-3.636a27.063,27.063,0,0,0,8.341-19.49V31.979H53.788a2.789,2.789,0,0,1-1.67-5.023L87.446.553a2.79,2.79,0,0,1,3.339,0l35.328,26.4a2.789,2.789,0,0,1-1.67,5.023H114.217V67.265a27.064,27.064,0,0,0,8.341,19.49l3.811,3.636a2.789,2.789,0,0,1-1.926,4.807Z" fill="#fff064"/>
    <path id="Trazado_9146" data-name="Trazado 9146" d="M293.974,30.071A2.789,2.789,0,0,0,293,26.958L257.669.555A2.786,2.786,0,0,0,256,0V95.2h35.328a2.789,2.789,0,0,0,1.926-4.807l-3.811-3.636a27.063,27.063,0,0,1-8.341-19.49V31.981h10.227A2.789,2.789,0,0,0,293.974,30.071Z" transform="translate(-166.883 -0.001)" fill="#ffdc1e"/>
    <path id="Trazado_9147" data-name="Trazado 9147" d="M362.738,192a6.508,6.508,0,0,0-6.508,6.508v8.367a3.707,3.707,0,0,1-1.089,2.63l.717,4.436,8.486,4.767a16.682,16.682,0,0,0,4.9-11.833v-8.367A6.508,6.508,0,0,0,362.738,192Z" transform="translate(-247.591 -156.301)" fill="#fabe8c"/>
    <path id="Trazado_9148" data-name="Trazado 9148" d="M87.507,192a6.508,6.508,0,0,1,6.508,6.508v8.367A3.707,3.707,0,0,0,95.1,209.5l-.717,4.436L85.9,218.707A16.682,16.682,0,0,1,81,206.874v-8.367A6.508,6.508,0,0,1,87.507,192Z" transform="translate(-24.422 -156.301)" fill="#ffd0af"/>
    <path id="Trazado_9149" data-name="Trazado 9149" d="M150.8,287.23H119.192a3.707,3.707,0,0,1-2.63-1.089l-9.2,9.2a16.682,16.682,0,0,0,11.833,4.9h1.859v27.89h27.89v-27.89H150.8a16.683,16.683,0,0,0,11.833-4.9l-9.2-9.2A3.707,3.707,0,0,1,150.8,287.23Z" transform="translate(-45.881 -232.938)" fill="#ff823c"/>
    <path id="Trazado_9150" data-name="Trazado 9150" d="M274.433,286.141a3.707,3.707,0,0,1-2.63,1.089H256v40.906h13.945v-27.89H271.8a16.683,16.683,0,0,0,11.833-4.9Z" transform="translate(-166.883 -232.938)" fill="#f06923"/>
    <path id="Trazado_9151" data-name="Trazado 9151" d="M203.085,216.171a12.086,12.086,0,1,1,12.086-12.086A12.1,12.1,0,0,1,203.085,216.171Z" transform="translate(-113.969 -156.301)" fill="#ffd0af"/>
    <path id="Trazado_9152" data-name="Trazado 9152" d="M268.085,204.085A12.1,12.1,0,0,0,256,192v24.172A12.1,12.1,0,0,0,268.085,204.085Z" transform="translate(-166.883 -156.301)" fill="#fabe8c"/>
  </g>
</svg>
