<svg xmlns="http://www.w3.org/2000/svg" xmlns:xlink="http://www.w3.org/1999/xlink" width="631.227" height="285.55" viewBox="0 0 631.227 285.55">
  <defs>
    <linearGradient id="linear-gradient" x1="-0.442" y1="0.5" x2="0.558" y2="0.5" gradientUnits="objectBoundingBox">
      <stop offset="0" stop-color="#daece5"/>
      <stop offset="1" stop-color="#b2deeb"/>
    </linearGradient>
    <linearGradient id="linear-gradient-2" x1="0" y1="0.5" x2="1" y2="0.5" xlink:href="#linear-gradient"/>
    <linearGradient id="linear-gradient-3" x1="-0.097" y1="0.5" x2="0.903" y2="0.5" xlink:href="#linear-gradient"/>
  </defs>
  <g id="Grupo_10304" data-name="Grupo 10304" transform="translate(-44.456 -85.748)">
    <g id="Grupo_10282" data-name="Grupo 10282" transform="translate(56.17 85.747)">
      <g id="Grupo_10278" data-name="Grupo 10278" transform="translate(45.767 268.474)">
        <path id="Trazado_9282" data-name="Trazado 9282" d="M99.633,310.824s3.853,3.573,12.638,5.811c1.934.492,4.019-.166,4.019,3.025H105.629l-8.867-1.533v1.533H91.974s-1.334-7.832,1.463-8.836Z" transform="translate(-91.656 -305.198)" fill="#122043"/>
        <path id="Trazado_9283" data-name="Trazado 9283" d="M98.952,306.2l.539,5.626h0a5.418,5.418,0,0,1-5.866.2l-.33-.2L92.3,306.2Z" transform="translate(-91.515 -306.204)" fill="#f7a57a"/>
      </g>
      <g id="Grupo_10279" data-name="Grupo 10279" transform="translate(7.155 268.474)">
        <path id="Trazado_9284" data-name="Trazado 9284" d="M67.927,310.824s3.853,3.573,12.638,5.811c1.934.492,4.019-.166,4.019,3.025H73.923l-8.867-1.533v1.533H60.268s-1.333-7.832,1.464-8.836Z" transform="translate(-59.95 -305.198)" fill="#122043"/>
        <path id="Trazado_9285" data-name="Trazado 9285" d="M67.246,306.2l.539,5.626h0a5.418,5.418,0,0,1-5.866.2l-.329-.2L60.6,306.2Z" transform="translate(-59.809 -306.204)" fill="#f7a57a"/>
      </g>
      <g id="Grupo_10281" data-name="Grupo 10281" transform="translate(15.5)">
        <path id="Trazado_9286" data-name="Trazado 9286" d="M81.142,111.328l1.119,11.011-11.8.467,2.365-17.07Z" transform="translate(-66.006 -81.394)" fill="#f18c72"/>
        <g id="Grupo_10280" data-name="Grupo 10280" transform="translate(6.703 7.252)">
          <path id="Trazado_9287" data-name="Trazado 9287" d="M84.365,116.4a5.915,5.915,0,0,0,3.305-.784c3.954-5.751-.549-21.25-.549-21.25L80.8,91.7,72.772,96.71,72.314,107.1a8.43,8.43,0,0,0,3.585,7.164h0A16.455,16.455,0,0,0,84.365,116.4Z" transform="translate(-72.307 -91.702)" fill="#f7a57a"/>
        </g>
        <path id="Trazado_9288" data-name="Trazado 9288" d="M75.236,103.893c.441-1.745.211-5.771,1.987-5.48,1.3.213,5.737.4,7.231.4,3.562,0,9.911-1.394,9.911-6.814,0-2.71-2.628-5.045-4.293-5.741a7.217,7.217,0,0,0-5.15-.065c-3.923,1.37-9.124,4.4-11.2,3.979-3.489-.7-6.971,1.344-6.922,4.31.052,3.168,1.7,7.932,3.263,10.958a16.644,16.644,0,0,0,3.557,4.653h0Z" transform="translate(-66.803 -85.747)" fill="#122043"/>
        <path id="Trazado_9289" data-name="Trazado 9289" d="M70.85,101.05a2.68,2.68,0,0,1,3.317.3c1.039.865,1.239,2.135.444,2.835a2.68,2.68,0,0,1-3.319-.3C70.255,103.021,70.056,101.752,70.85,101.05Z" transform="translate(-66.027 -82.512)" fill="#f7a57a"/>
      </g>
      <path id="Trazado_9290" data-name="Trazado 9290" d="M79.93,116.746q.6,0,1.193.022c13.012.477,23.175,18.433,23.175,31.454v47.093H54.075v-53.9a24.423,24.423,0,0,1,20.418-24.27A35.737,35.737,0,0,1,79.93,116.746Z" transform="translate(-54.075 -78.996)" fill="url(#linear-gradient)"/>
      <path id="Trazado_9291" data-name="Trazado 9291" d="M104.3,181.262c5.742,27.855,6.624,57.835,6.754,83a665.689,665.689,0,0,1-3.116,70.153H99.649L82.344,218.549S80.456,235.78,77.9,265c-2,22.926-2.95,42.308-8.335,69.414H61.254s-7.179-83.661-7.179-153.15Z" transform="translate(-54.075 -64.944)" fill="#122043"/>
      <path id="Trazado_9292" data-name="Trazado 9292" d="M81.894,114.3H71.4l-1.67,3.863H83.244Z" transform="translate(-50.665 -79.528)" fill="#53b6b9"/>
    </g>
    <g id="Grupo_10288" data-name="Grupo 10288" transform="translate(604.565 92.103)">
      <g id="Grupo_10287" data-name="Grupo 10287">
        <g id="Grupo_10283" data-name="Grupo 10283" transform="translate(0 258.294)">
          <path id="Trazado_9293" data-name="Trazado 9293" d="M525.008,308.782s-4.77,4.423-15.644,7.194c-2.394.61-4.976-.2-4.976,3.745h13.2l10.975-1.9v1.9h5.928s1.65-9.695-1.812-10.938Z" transform="translate(-504.388 -301.819)" fill="#122043"/>
          <path id="Trazado_9294" data-name="Trazado 9294" d="M521.987,303.064l-.667,6.963h0a6.707,6.707,0,0,0,7.262.244l.407-.244,2.462-6.963Z" transform="translate(-500.7 -303.064)" fill="#f7a57a"/>
        </g>
        <g id="Grupo_10284" data-name="Grupo 10284" transform="translate(33.029 258.294)">
          <path id="Trazado_9295" data-name="Trazado 9295" d="M552.129,308.782s-4.77,4.423-15.644,7.194c-2.394.61-4.975-.2-4.975,3.745h13.2l10.975-1.9v1.9h5.928s1.65-9.695-1.812-10.938Z" transform="translate(-531.51 -301.819)" fill="#122043"/>
          <path id="Trazado_9296" data-name="Trazado 9296" d="M549.108,303.064l-.667,6.963h0a6.706,6.706,0,0,0,7.262.244l.407-.244,2.463-6.963Z" transform="translate(-527.822 -303.064)" fill="#f7a57a"/>
        </g>
        <g id="Grupo_10286" data-name="Grupo 10286" transform="translate(31.637)">
          <path id="Trazado_9297" data-name="Trazado 9297" d="M539.214,116.379l1.861,11.365,10.126-4.523-3.339-13.64Z" transform="translate(-528.44 -86.912)" fill="#f18c72"/>
          <g id="Grupo_10285" data-name="Grupo 10285" transform="translate(2.006 5.029)">
            <path id="Trazado_9298" data-name="Trazado 9298" d="M537.1,120.584a6.113,6.113,0,0,1-3.412-.81c-4.081-5.934.567-21.932.567-21.932l6.523-2.746,8.287,5.168.471,10.72a8.7,8.7,0,0,1-3.7,7.395h0A16.979,16.979,0,0,1,537.1,120.584Z" transform="translate(-532.015 -95.096)" fill="#f7a57a"/>
          </g>
          <path id="Trazado_9299" data-name="Trazado 9299" d="M547.128,104.256a3.583,3.583,0,0,0-4.041-2.672,28.634,28.634,0,0,1-4.48.408c-3.675,0-8.24-1.439-8.24-7.033s6.872-3.675,6.872-3.675,14.117,2.14,19.587,6.239c2.616,1.961-1.761,8.186-3.367,11.31a17.189,17.189,0,0,1-3.672,4.8h0Z" transform="translate(-530.367 -90.966)" fill="#122043"/>
          <path id="Trazado_9300" data-name="Trazado 9300" d="M548.791,104.744a2.767,2.767,0,0,0-3.424.306c-1.073.893-1.277,2.2-.459,2.926a2.769,2.769,0,0,0,3.426-.306C549.405,106.778,549.611,105.467,548.791,104.744Z" transform="translate(-527.309 -88.067)" fill="#f7a57a"/>
        </g>
        <path id="Trazado_9301" data-name="Trazado 9301" d="M545.1,125.3s-15.242,25.021-24.359,83.129c18.363,5.772,46.412,12.006,46.412,12.006s16.576-62.986-11.928-99.658C549.231,120.781,545.1,125.3,545.1,125.3Z" transform="translate(-500.826 -84.472)" fill="url(#linear-gradient-2)"/>
        <path id="Trazado_9302" data-name="Trazado 9302" d="M523.023,192.756s-12.763,42.838-12.763,62.23,12.763,74.093,12.763,74.093h11.724s2.745-38.262-.626-59.749a43.447,43.447,0,0,1,1.269-18.906c6.288-21.543,12.994-50.672,12.994-50.672Z" transform="translate(-503.109 -68.796)" fill="#122043"/>
        <path id="Trazado_9303" data-name="Trazado 9303" d="M528.1,195.566s-3.305,46.517,1.99,63.283,22.978,69.617,22.978,69.617h10.359s2.649-28.784-5.742-59.317a38.382,38.382,0,0,1,.749-22.527c8.086-23.774,7.339-42.472,7.339-42.472Z" transform="translate(-499.445 -68.184)" fill="#002f4c"/>
      </g>
      <path id="Trazado_9304" data-name="Trazado 9304" d="M540.258,122.518l9.939-5.481.776,4.559-10.715,5.56Z" transform="translate(-496.575 -85.288)" fill="#a4d1bb"/>
    </g>
    <path id="Trazado_9305" data-name="Trazado 9305" d="M147.945,121.389a16.025,16.025,0,0,0,.44,13.529l-31.088-9.2a9.544,9.544,0,0,0-11.859,6.443L80.391,216.827a9.544,9.544,0,0,0,6.443,11.859l93.814,27.754,11.96-40.424a16.008,16.008,0,1,1,5.953-20.122l12.55-42.42-40.239-11.9a16.084,16.084,0,1,0-22.926-20.182Z" transform="translate(7.741 5.632)" fill="#53b6b9"/>
    <path id="Trazado_9306" data-name="Trazado 9306" d="M88.461,175.785l11.115,1.277c4.545.174,8.187-6.3,9.409-11.245a1.023,1.023,0,0,0-1.245-1.229c-3.9.957-13.945,3.487-16.606,4.812Z" transform="translate(9.585 17.166)" fill="#f7a57a"/>
    <path id="Trazado_9307" data-name="Trazado 9307" d="M59.123,127.349S33.794,161.18,49.706,177.59s51.715,9.448,51.715,9.448V176.595s-33.814.083-35.8-11.4,8.04-23.909,8.04-23.909" transform="translate(0 9.061)" fill="url(#linear-gradient-3)"/>
    <g id="Grupo_10289" data-name="Grupo 10289" transform="translate(56.17 150.037)">
      <path id="Trazado_9308" data-name="Trazado 9308" d="M54.075,179.5c16.03,9.232,41.267,5.29,44.754,4.685v-9.531c-4.389-.037-33.87-.692-35.8-11.807-2-11.567,7.727-23.792,8.143-24.307l.773.625c-.1.122-9.867,12.385-7.938,23.512,1.885,10.88,34.639,10.983,35.3,10.983h.507v11.35l-.4.078a101.769,101.769,0,0,1-17.2,1.436c-8.925,0-19.688-1.232-28.145-5.905Z" transform="translate(-54.075 -138.539)" fill="#53b6b9"/>
    </g>
    <g id="Grupo_10295" data-name="Grupo 10295" transform="translate(379.369 94.506)">
      <g id="Grupo_10290" data-name="Grupo 10290" transform="translate(21.421 114.7)">
        <path id="Trazado_9309" data-name="Trazado 9309" d="M347,193.447c-.44.261-1.856,1.293-3.283,4.489-1.28,2.867-2.067,9.64-4.779,7.364-.661-3.394-1.863-7.321-1.863-7.321-.189-2.084,1.75-4.992,3.331-6.573l5.5-4.281s3.479.667,3.649.67l.42.6A21.055,21.055,0,0,0,347,193.447Z" transform="translate(-337.059 -187.125)" fill="#f7a57a"/>
        <path id="Trazado_9310" data-name="Trazado 9310" d="M343.908,193.8a2.658,2.658,0,0,0-.492.2c-.034-.451-.094-.9-.168-1.335.487-1.565.924-3.144,1.393-4.714.922.424,2.219,1.016,2.318,1.042l-.9,10.943s-1.413.425-2-1.834A10.408,10.408,0,0,1,343.908,193.8Z" transform="translate(-335.71 -186.945)" fill="#f7a57a"/>
      </g>
      <g id="Grupo_10294" data-name="Grupo 10294">
        <path id="Trazado_9311" data-name="Trazado 9311" d="M361.888,149.006,343.078,199.4l3.951,1.533s14.7-22.626,29.41-48.616C390.25,127.916,361.888,149.006,361.888,149.006Z" transform="translate(-314.327 -82.572)" fill="#f7a57a"/>
        <path id="Trazado_9312" data-name="Trazado 9312" d="M358.524,151.5s9.6-22.343,22.6-22.343-1.2,1.655,15.35,0c11.317-1.133,21.337,18.512,21.337,18.512l-12.662,6.792-1.358,30.481H373.316l-1.737-29.423Z" transform="translate(-310.962 -85.062)" fill="#0f787a"/>
        <path id="Trazado_9313" data-name="Trazado 9313" d="M377.083,121.961v9.047l.073.055a10.764,10.764,0,0,0,12.314.35l.615-.4-2.014-10.415Z" transform="translate(-306.92 -86.916)" fill="#f18c72"/>
        <path id="Trazado_9314" data-name="Trazado 9314" d="M372.034,108.345s-.754,20.37,10.94,20.37,11.693-22.255,11.693-22.255L384.482,96.274Z" transform="translate(-308.022 -92.213)" fill="#f7a57a"/>
        <path id="Trazado_9315" data-name="Trazado 9315" d="M389.228,102.659s-4.27,7.085-9.074,10.1a6.447,6.447,0,0,0-2.928,6.854c.736,3.384,4.753,6.273,4.231,9.46-.85,5.185,1.718,10.416,4.64,14.783,8.9,13.3.486,35-11.967,35-14.029,0-12.2-16.483-11.169-19.436a8.445,8.445,0,0,0-2.268-9.1c-1.849-1.644-3.529-3.791-3.529-6.168,0-2.851,2.529-7.682,4.857-11.523a51.346,51.346,0,0,0,5.511-16.565c2.459-23.12,18.765-23.181,19.5-23.12,8.058.671,15.311,7.559,15.448,15.644.16,9.4,3.059,28.653,5.606,32.17-8.331,3.644-19.2-2.264-16.091-15.469.609-2.585,5.662-9.773,5.436-12.068C396.542,104.122,389.228,102.659,389.228,102.659Z" transform="translate(-311.259 -92.94)" fill="#122043"/>
        <g id="Grupo_10291" data-name="Grupo 10291" transform="translate(95.014 252.428)">
          <path id="Trazado_9316" data-name="Trazado 9316" d="M404.636,300.22l2.093,5.447a7,7,0,0,0,2.852,3.621,28.161,28.161,0,0,0,7.208,3.126c-4.2,3.582-10.874-.012-14.693-2.657a9.349,9.349,0,0,1-3.734-5.409l-.874-4.127Z" transform="translate(-397.489 -300.22)" fill="#f7a57a"/>
        </g>
        <path id="Trazado_9317" data-name="Trazado 9317" d="M398.289,302.547s-2.839,2.231-2.319,5.075,1.257,9.5,1.257,9.5h2.918l-.089-6.211c.009-.407,6.258,6.211,7.317,6.211h15.442s1.025-4.189-8.042-5.536S398.289,302.547,398.289,302.547Z" transform="translate(-302.82 -47.285)" fill="#002f4c"/>
        <path id="Trazado_9318" data-name="Trazado 9318" d="M386.4,105.222a29.663,29.663,0,0,1-4.814,2.617,24.9,24.9,0,0,1-5.476,5.8,28.4,28.4,0,0,1,1.359,9.6c-.027.7-.094,1.392-.179,2.07a8.151,8.151,0,0,0,4.788,1.458c8.011,0,10.533-10.443,11.328-17.021A22.735,22.735,0,0,1,386.4,105.222Z" transform="translate(-307.131 -90.264)" fill="#f7a57a"/>
        <path id="Trazado_9319" data-name="Trazado 9319" d="M388.28,113.114a2.659,2.659,0,0,1,.354-3.524c1.008-1.1,2.487-1.308,3.3-.463a2.658,2.658,0,0,1-.353,3.523C390.572,113.751,389.095,113.959,388.28,113.114Z" transform="translate(-304.594 -89.527)" fill="#f7a57a"/>
        <path id="Trazado_9320" data-name="Trazado 9320" d="M410.075,257.941c11.26-58.282-7-82.989-7-82.989H372.5s-16.425,23.764-7,82.989c0,0-5.642,27.16-2.257,69.564h7.147l8.718-62.4,8.679-56.308,8.681,56.308,8.718,62.4h7.147C415.717,285.1,410.075,257.941,410.075,257.941Z" transform="translate(-310.171 -75.077)" fill="#53b6b9"/>
        <path id="Trazado_9321" data-name="Trazado 9321" d="M363.133,303.336l-1.677,9.074a10.7,10.7,0,0,0,1.335,7.471c1.251,2.07,2.922,4.2,4.514,4.2,1.785,0,3.789-2.292,5.171-4.244a6.874,6.874,0,0,0,1.1-5.464l-2.62-11.821Z" transform="translate(-310.363 -47.285)" fill="#002f4c"/>
        <path id="Trazado_9322" data-name="Trazado 9322" d="M363.226,300.22l-.986,11.935a3.388,3.388,0,0,0,1.813,3.322,7.119,7.119,0,0,0,6.088.045,3.362,3.362,0,0,0,1.8-3.491l-1.566-11.81Z" transform="translate(-310.156 -47.792)" fill="#f7a57a"/>
        <path id="Trazado_9323" data-name="Trazado 9323" d="M395.519,142.664l-72.025,51.065a9.543,9.543,0,0,0-2.266,13.3L339.352,232.6a16.09,16.09,0,1,1,13.2,18.615l25.262,35.631,35.755-25.35a16.09,16.09,0,1,0,16.739-11.868l27.315-19.367a9.543,9.543,0,0,0,2.266-13.3L408.823,144.93A9.543,9.543,0,0,0,395.519,142.664Z" transform="translate(-319.469 -82.492)" fill="#ffc630"/>
        <path id="Trazado_9324" data-name="Trazado 9324" d="M411.264,144.346s15.253,28.973,8.84,33.123-31.511-11.075-31.511-11.075l1.333-4.149,13.915.511L398.6,151.138Z" transform="translate(-304.413 -81.743)" fill="#f7a57a"/>
        <g id="Grupo_10292" data-name="Grupo 10292" transform="translate(86.215 80.542)">
          <path id="Trazado_9325" data-name="Trazado 9325" d="M419,165.613c-10.228-6.473-28.474-5.315-28.666-5.3l-.073-1.13c.806-.049,18.805-1.195,29.344,5.475Z" transform="translate(-390.264 -159.077)" fill="#f18c72"/>
        </g>
        <g id="Grupo_10293" data-name="Grupo 10293" transform="translate(69.872 69.743)">
          <path id="Trazado_9326" data-name="Trazado 9326" d="M390,158.758c-.538-.044-2.363-.369-5.2-2.744-2.545-2.131-6.432-8.2-7.954-4.782.944,3.532,1.622,7.82,1.622,7.82.786,2.067,3.977,3.932,6.211,4.7l7.208,1.517s3-2.246,3.157-2.327l-.564-1.435A16.1,16.1,0,0,1,390,158.758Z" transform="translate(-376.844 -150.209)" fill="#f7a57a"/>
          <path id="Trazado_9327" data-name="Trazado 9327" d="M386.432,158.7a2.868,2.868,0,0,1-.559.04c.177.443.325.894.459,1.346,1.187,1.26,2.335,2.56,3.508,3.834.68-.831,1.637-1.994,1.718-2.064l-5.925-9.982s-1.541.251-1.051,2.669A11,11,0,0,0,386.432,158.7Z" transform="translate(-375.179 -149.847)" fill="#f7a57a"/>
        </g>
      </g>
    </g>
    <path id="Trazado_9328" data-name="Trazado 9328" d="M542.247,147.758A16.167,16.167,0,1,1,528.9,133.679l-23.949-25.265a9.542,9.542,0,0,0-13.491-.362l-23.628,22.4a16.251,16.251,0,1,0-17.853,16.923l-22.645,21.465a9.544,9.544,0,0,0-.362,13.492l60.784,64.126a9.545,9.545,0,0,0,13.492.362l64.126-60.786a9.543,9.543,0,0,0,.362-13.491Z" transform="translate(82.746 4.288)" fill="#a4d1bc"/>
    <g id="Grupo_10296" data-name="Grupo 10296" transform="translate(590.241 218.737)">
      <path id="Trazado_9329" data-name="Trazado 9329" d="M509.785,198.179c-.514.311-2.375,1.208-6.582,1.017-3.775-.173-11.522-2.83-10.482,1.057,3.327,2.394,6.948,5.6,6.948,5.6,2.156,1.252,6.323.782,8.863,0l7.52-3.353s1.106-3.84,1.191-4.013l-1.513-.856A19.392,19.392,0,0,1,509.785,198.179Z" transform="translate(-492.626 -194.367)" fill="#f7a57a"/>
      <path id="Trazado_9330" data-name="Trazado 9330" d="M506.537,200.241a3.061,3.061,0,0,1-.473.395c.47.263.919.549,1.357.849,1.95.306,3.888.672,5.835,1,.026-1.144.065-2.749.088-2.862l-12.317-4.67s-1.2,1.2.935,2.946A13.092,13.092,0,0,0,506.537,200.241Z" transform="translate(-490.87 -194.951)" fill="#f7a57a"/>
    </g>
    <path id="Trazado_9331" data-name="Trazado 9331" d="M545.52,140.958l-3.413,27.862a25.466,25.466,0,0,1-6.753,14.38L510.26,209.81l2.486,6.234s37.806-17.818,44.761-28.373,10.437-42.735,10.437-42.735Z" transform="translate(101.456 12.025)" fill="url(#linear-gradient-2)"/>
    <g id="Grupo_10297" data-name="Grupo 10297" transform="translate(611.137 167.055)">
      <path id="Trazado_9332" data-name="Trazado 9332" d="M566.07,153.135c-1.633,10.326-4.6,25.267-8.875,31.747-6.378,9.679-39.679,25.86-44.08,27.968l-2.171-5.446,24.877-26.38a25.8,25.8,0,0,0,6.883-14.66l1.53-12.489c-.315-.179-.627-.365-.933-.561l-1.583,12.928a24.824,24.824,0,0,1-6.62,14.1L510,206.953l-.218.23,2.8,7.021.477-.225c1.549-.731,38.013-18,44.965-28.549,4.531-6.876,7.565-22.516,9.166-32.916Q566.639,152.838,566.07,153.135Z" transform="translate(-509.784 -152.513)" fill="#53b6b9"/>
    </g>
    <g id="Grupo_10303" data-name="Grupo 10303" transform="translate(217.009 90.282)">
      <g id="Grupo_10302" data-name="Grupo 10302">
        <g id="Grupo_10298" data-name="Grupo 10298" transform="translate(0 187.219)">
          <path id="Trazado_9333" data-name="Trazado 9333" d="M189.4,302.88s-2.85,1.509-2.845,4.091-.408,8.551-.408,8.551l2.563.465.911-5.473c.072-.356,4.6,5.781,7.681,8.862l11.332.219s1.569-3.518-6.186-6.145S189.4,302.88,189.4,302.88Z" transform="translate(-186.147 -230.207)" fill="#005558"/>
          <path id="Trazado_9334" data-name="Trazado 9334" d="M198.028,270.631a49.083,49.083,0,0,1,.666-6.916,42.619,42.619,0,0,1,5.662-14.224c2.779-1.03,5.439-2.315,8.276-3.438a74.473,74.473,0,0,1,10.04-2.848q-.21.572-.427,1.148c-16.6,43.795-25.88,63.684-27.326,68.392a5.443,5.443,0,0,0-.347,2.18c.24,2.274,1.3,7.132,7.952,11.756-7.065,1.761-13.705-10.8-13.705-10.8S197.678,285.7,198.028,270.631Z" transform="translate(-185.565 -243.205)" fill="#f18c72"/>
        </g>
        <path id="Trazado_9335" data-name="Trazado 9335" d="M226.681,121.477l-.752,11.9-11.622-2.4,1.4-16.177Z" transform="translate(-180.014 -83.954)" fill="#f18c72"/>
        <path id="Trazado_9336" data-name="Trazado 9336" d="M229.341,125.734c1.7-.051,3.272-.329,4.1-1.064,4.9-7.807-.681-28.85-.681-28.85l-17.776,3.187-.566,14.1a11.84,11.84,0,0,0,4.441,9.727h0A19,19,0,0,0,229.341,125.734Z" transform="translate(-179.993 -88.088)" fill="#f7a57a"/>
        <path id="Trazado_9337" data-name="Trazado 9337" d="M217.64,306.288s-2.445,1.924-2,4.374,1.083,8.191,1.083,8.191h2.516l-.078-5.353c.007-.349,5.395,5.353,6.307,5.353H238.78s.884-3.611-6.932-4.771S217.64,306.288,217.64,306.288Z" transform="translate(-179.734 -42.246)" fill="#005558"/>
        <g id="Grupo_10299" data-name="Grupo 10299" transform="translate(28.464 184.56)">
          <path id="Trazado_9338" data-name="Trazado 9338" d="M212.212,275.292a48.984,48.984,0,0,1-1.774-6.719c-1.064-6.627-1.156-15.913-.518-18.916,2.249-1.929,5.2-.446,7.468-2.483a74.793,74.793,0,0,1,8.428-6.152c0,.407,0,.815,0,1.226-.385,46.833-2.193,68.706-1.918,73.624.041.751,2.26,10.429,10.107,12.459-6.017,4.1-15.041-7.828-15.041-7.828S217.108,289.552,212.212,275.292Z" transform="translate(-209.52 -241.022)" fill="#f7a57a"/>
        </g>
        <path id="Trazado_9339" data-name="Trazado 9339" d="M229.844,129.737l11.166,18.244a14.283,14.283,0,0,1,1.023,9.3l-7.093,31.133a27.35,27.35,0,0,0-.677,5.5l-1.694,81.62H196.918a252.724,252.724,0,0,0,6.786-36.907c2.261-20.8-4.359-29.845-2.514-38.948a44.789,44.789,0,0,1,8.776-17.768,17.273,17.273,0,0,0,3.695-10.4c.379-15.438-15.79-58.059-.358-47.687S229.844,129.737,229.844,129.737Z" transform="translate(-183.801 -82.339)" fill="#0f787a"/>
        <path id="Trazado_9340" data-name="Trazado 9340" d="M276.2,152.285c.539.037,2.392-.016,5.547-1.945,2.831-1.731,7.572-7.16,8.572-3.554-1.457,3.353-2.76,7.493-2.76,7.493-1.083,1.928-4.514,3.3-6.837,3.731l-7.353.436s-2.632-2.663-2.778-2.768l.77-1.336A16.061,16.061,0,0,0,276.2,152.285Z" transform="translate(-167.753 -77.251)" fill="#f7a57a"/>
        <g id="Grupo_10300" data-name="Grupo 10300" transform="translate(27.812 62.592)">
          <path id="Trazado_9341" data-name="Trazado 9341" d="M216.707,180l11.721-7.9-4.462-31.238-1.1.157,4.364,30.55-9.89,6.665-7.3-24.871-1.063.312Z" transform="translate(-208.985 -140.868)" fill="#005558"/>
        </g>
        <path id="Trazado_9342" data-name="Trazado 9342" d="M223.3,105.58a18.093,18.093,0,0,0,9.594,2.218,12.178,12.178,0,0,0,9.394-6.19c1.248-2.688,1.522-5.481-2.622-8.606-2.839-2.109-6.367-.788-7.888.581a2.979,2.979,0,0,1-3.949.107,18.26,18.26,0,0,0-12.033-4.218c-6.183,0-6.011,6-5.072,10.351a6.258,6.258,0,0,1-2.771,6.666c-3.67,2.272-8.343,5.978-7.382,9.684a21.938,21.938,0,0,0,4.11,7.71,5.479,5.479,0,0,1,.052,6.682c-2.281,3.008-4.953,7.38-4.162,10.543.749,3,2.981,6.84,4.779,9.613a5.96,5.96,0,0,1,.006,6.453,7.935,7.935,0,0,0-1.254,6,13.879,13.879,0,0,0,2.255,4.855,3.876,3.876,0,0,0,6.642-.511c4.049-8.174,11.139-24.9,8.664-37.664-1.241-6.4-2.932-17.69-2.932-17.69S216.9,102.857,223.3,105.58Z" transform="translate(-183.037 -89.471)" fill="#122043"/>
        <path id="Trazado_9343" data-name="Trazado 9343" d="M226.792,161.341l13.61,7.052a7.456,7.456,0,0,0,5.509.538l37.431-11.821v-4.725l-36.481,4.429-11.411-6.067Z" transform="translate(-177.294 -76.125)" fill="#f7a57a"/>
        <path id="Trazado_9344" data-name="Trazado 9344" d="M213.647,105.545c.983-.951,2.824-.771,4.111.4s1.533,2.9.549,3.848-2.824.771-4.111-.4S212.663,106.5,213.647,105.545Z" transform="translate(-180.289 -86.103)" fill="#f7a57a"/>
        <path id="Trazado_9345" data-name="Trazado 9345" d="M224.461,162.5l3.77-23.276,16.163,18.576-4.432,14.453-15.4-7.967C225.022,162.515,224.561,164.292,224.461,162.5Z" transform="translate(-177.802 -78.633)" fill="#0f787a"/>
        <g id="Grupo_10301" data-name="Grupo 10301" transform="translate(45.619 47.289)">
          <path id="Trazado_9346" data-name="Trazado 9346" d="M231.357,177.3c-.431-.314-.431-.314-.87-.61l5.087-20.882a13.649,13.649,0,0,0-.943-8.8l-11.025-18.05c.359-.256.247-.219.424-.541.04-.072.494-.091.611-.11L235.8,146.373a15.014,15.014,0,0,1,1.069,9.727" transform="translate(-223.607 -128.302)" fill="#53b6b9"/>
        </g>
        <path id="Trazado_9347" data-name="Trazado 9347" d="M277.7,152.744a2.83,2.83,0,0,0,.547.122c-.24.413-.454.837-.653,1.264-1.361,1.07-2.686,2.186-4.036,3.272-.549-.922-1.324-2.213-1.394-2.3l7.334-9s1.486.476.645,2.795A10.989,10.989,0,0,1,277.7,152.744Z" transform="translate(-167.412 -77.134)" fill="#f7a57a"/>
      </g>
      <path id="Trazado_9348" data-name="Trazado 9348" d="M246.222,240.874a16.032,16.032,0,0,1,8.5-10.538l-39.3-14.722L249.746,124a9.542,9.542,0,0,1,12.284-5.589l82.678,30.975A9.543,9.543,0,0,1,350.3,161.67l-11.441,30.54a16.006,16.006,0,1,0-7.362,19.651l-15.52,41.424-39.3-14.722a16.084,16.084,0,1,1-30.456,2.311Z" transform="translate(-179.771 -83.3)" fill="#002f4c"/>
      <path id="Trazado_9349" data-name="Trazado 9349" d="M226.394,166.3l.838,2.992c.465,1.664,1.057,2.292,2.4,4.521,3.93,6.554,17.17,22.609,17.17,22.609l10.7,6.068s-.22,1.544-2.648,1.1a11.009,11.009,0,0,1-4.193-1.766s-.443,1.76,1.766,5.3c1.649,2.641,6.942,7.142,3.31,7.944a61.326,61.326,0,0,1-7.371-4.077,7.135,7.135,0,0,1-3.578-5.039l-.968-5.668L221.1,181.706a17.2,17.2,0,0,1-5.437-7.9l-.074-.228Z" transform="translate(-179.734 -72.737)" fill="#f7a57a"/>
    </g>
  </g>
</svg>
