<svg xmlns="http://www.w3.org/2000/svg" width="405" height="378" viewBox="0 0 405 378">
  <g id="Grupo_11338" data-name="Grupo 11338" transform="translate(-735 -1944)">
    <g id="Grupo_10005" data-name="Grupo 10005" transform="translate(404.504 1900.918)">
      <path id="Trazado_8751" data-name="Trazado 8751" d="M1132.543,257.519c-.162-1.411-.574-5.984-.682-7.911s.264-3.979-.075-5.931-.788-4.7-1.361-7.373-2.527-15.857-2.9-20.426-3.031-11.817-3.542-13.613-.571-8.566-.5-11.433.186-9.05.758-14.477.648-12.005-.867-15.995a12.792,12.792,0,0,0-3.5-5.3,8.053,8.053,0,0,0-2.547-1.758h0c-1.831-.828-3.732-1.062-4.772-1.5-.493-.206-1.107-.508-1.792-.869h.066c-3.341-1.763-8.356-4.937-9.127-5.3-.648-.3-.4-4.728-.2-7.834.4-.623.8-2.063,1.206-2.789a15.735,15.735,0,0,0,1.317-4.378c1.329,0,2.3-4.654,2.3-6.519,0-1.229-.318-1.547-.915-1.622a19.339,19.339,0,0,0,.277-3.261,17.339,17.339,0,0,0-3.749-11.073,4.776,4.776,0,0,0,.4-1.859c.026-3.446-3.719-6.267-8.364-6.3h-.365c-4.644.034-8.389,2.855-8.364,6.3a4.772,4.772,0,0,0,.4,1.859,17.339,17.339,0,0,0-3.749,11.073,19.339,19.339,0,0,0,.277,3.261c-.6.074-.915.392-.915,1.622,0,1.866.966,6.519,2.3,6.519a15.739,15.739,0,0,0,1.317,4.378c.409.726.81,2.166,1.206,2.789.206,3.107.451,7.532-.2,7.834-.77.36-5.785,3.534-9.127,5.3h.066c-.684.361-1.3.663-1.792.869-1.04.435-2.941.668-4.772,1.5h0a8.051,8.051,0,0,0-2.546,1.758,12.791,12.791,0,0,0-3.5,5.3c-1.516,3.989-1.439,10.568-.867,15.995s.689,11.61.758,14.477.009,9.637-.5,11.433-3.168,9.044-3.542,13.613-2.328,17.752-2.9,20.426-1.023,5.421-1.361,7.373.033,4-.075,5.931-.52,6.5-.682,7.911a49.269,49.269,0,0,0,.369,5.71c.041,1.128.906,2.691,1.377,4.21a21.91,21.91,0,0,0,2.205,3.948c.484.907.85-.786.863-1.4a9.235,9.235,0,0,0-1.358-2.557l-.816-3.311,1.508,3.238s1.073,1.324,1.7,2.129,1.227,1.308,1.652.915-.01-1.567-.01-1.567,1.248.567,1.176-.647a4.9,4.9,0,0,0-1.481-2.98c-.181-.242-.883-1.736-.883-1.736a16.658,16.658,0,0,0,1.959,1.622c1.263.912,1.59.269,1.251-.741s-.842-1.266-1.856-2.418a2.205,2.205,0,0,1-.823-1.578c.077-2.229-.581-4.846-.1-6.076.674-1.726,1.162-3,.636-5.032s-1.537-4.139-.188-6.948c2.423-5.046,6.642-12.258,8.587-19.556,1.922-7.214,2.321-9.836,2.269-14.011-.036-2.953.444-7.516.782-10.949.124-1.263.762-4.761,1.368-7.941.008.029.017.059.025.088a81.416,81.416,0,0,1,3.017,9.771c.812,5.067-1.492,10.568-3.094,15.072a38.486,38.486,0,0,0-2.32,11.261c-.387,3.811-2.088,11.261-2.475,15.678a80.2,80.2,0,0,0,2.243,26.852c1.457,5.94,2.339,9.7,2.874,12.3h-.066c1.04,5.046.763,5.665.838,9.273.116,5.587,1.222,10.451.836,13.136s-2.073,8.865-1.222,16.055,3.326,20.1,4.1,24.253c.063.337.123.663.183.983a33.983,33.983,0,0,1,.3,7.679,18.877,18.877,0,0,0-.161,4.137,3.258,3.258,0,0,0,.068.453c.386,1.732-1.005,5.89-1.7,7.016s-2.63,4.288-2.63,5.977c0,1.126-.155,2.945.309,3.725a1.449,1.449,0,0,0,1.291.623h.066c.08,0,.145,0,.192-.008a2.7,2.7,0,0,0,.617,1.29.74.74,0,0,0,.506.192h.066a1.567,1.567,0,0,0,.68-.158,1.49,1.49,0,0,0,1.237.934h.066a1.787,1.787,0,0,0,1-.335,1.982,1.982,0,0,0,1.033.367.991.991,0,0,0,.1,0,.826.826,0,0,0,.38-.1c.474-.265.7-.4.776-.443a5.279,5.279,0,0,0,2.123.513h.066a1.889,1.889,0,0,0,1.521-.664c1.005-1.256.58-2.815.657-3.682a8.669,8.669,0,0,0-.5-4.48c-.752-2.4-.275-2.969-.353-4.875s-.619-3.464-.309-5.024a12.958,12.958,0,0,0,.232-5.111c-.31-2.6-.265-8.922,1.028-17.151s2.762-14.942,2.143-21.352-1.7-8.792-.541-13.383,2.707-8.575,2.165-14.119-1.469-9.268-.7-16.8,1.16-10.134,1.47-14.812c.174-2.628.322-5.358.42-7.251.1,1.893.246,4.623.42,7.251.309,4.678.7,7.276,1.47,14.812s-.155,11.261-.7,16.8,1.005,9.528,2.166,14.119.077,6.973-.541,13.383.851,13.123,2.143,21.352,1.337,14.552,1.028,17.151a12.959,12.959,0,0,0,.232,5.111c.309,1.559-.232,3.118-.309,5.024s.4,2.471-.353,4.875a8.665,8.665,0,0,0-.5,4.48c.077.866-.348,2.425.657,3.682a1.889,1.889,0,0,0,1.521.664h.065a5.279,5.279,0,0,0,2.123-.513c.079.047.3.178.776.443a.826.826,0,0,0,.38.1.989.989,0,0,0,.1,0,1.982,1.982,0,0,0,1.033-.367,1.787,1.787,0,0,0,1,.335h.066a1.49,1.49,0,0,0,1.237-.934,1.566,1.566,0,0,0,.68.158h.066a.741.741,0,0,0,.506-.192,2.7,2.7,0,0,0,.617-1.29c.047,0,.111.008.192.008h.066a1.45,1.45,0,0,0,1.292-.623c.464-.779.309-2.6.309-3.725,0-1.689-1.934-4.851-2.63-5.977s-2.088-5.284-1.7-7.016a3.294,3.294,0,0,0,.068-.453,18.877,18.877,0,0,0-.161-4.137,33.989,33.989,0,0,1,.3-7.679c.059-.32.12-.646.183-.983.773-4.158,3.248-17.064,4.1-24.253s-.835-13.369-1.222-16.055.72-7.549.836-13.136c.075-3.608-.2-4.227.838-9.273h-.066c.535-2.594,1.417-6.355,2.874-12.3a80.2,80.2,0,0,0,2.243-26.852c-.386-4.418-2.088-11.867-2.475-15.678a38.483,38.483,0,0,0-2.32-11.261c-1.6-4.5-3.906-10-3.094-15.072a81.349,81.349,0,0,1,3.017-9.771l.024-.088c.607,3.18,1.244,6.679,1.369,7.941.338,3.433.819,8,.782,10.949-.052,4.175.347,6.8,2.269,14.011,1.945,7.3,6.164,14.51,8.587,19.556,1.349,2.809.338,4.913-.188,6.948s-.037,3.306.636,5.032c.48,1.231-.177,3.847-.1,6.076a2.206,2.206,0,0,1-.822,1.578c-1.014,1.153-1.516,1.409-1.856,2.418s-.012,1.653,1.251.741a16.654,16.654,0,0,0,1.96-1.622s-.7,1.494-.883,1.736a4.9,4.9,0,0,0-1.481,2.98c-.072,1.213,1.176.647,1.176.647s-.435,1.173-.01,1.567,1.023-.11,1.653-.915,1.7-2.129,1.7-2.129l1.508-3.238-.816,3.311a9.234,9.234,0,0,0-1.358,2.557c.013.611.379,2.3.864,1.4a21.918,21.918,0,0,0,2.2-3.948c.471-1.518,1.336-3.082,1.377-4.21A49.214,49.214,0,0,0,1132.543,257.519Z" transform="translate(-512.08 -0.001)" fill="#90c9f8"/>
      <path id="Trazado_8752" data-name="Trazado 8752" d="M530.3,228.7c.133-5.324.932-9.582.932-14.772a50.847,50.847,0,0,0-2.7-14.9c-1.242-3.593-.09-7.054-.007-14.639s-.616-8.118-1.015-9.981.865-3.183.932-6.122a50.909,50.909,0,0,0-.666-9.67,17.332,17.332,0,0,0-4.658-9.227,9.072,9.072,0,0,0-6.122-3.061c-2.529-.4-10.115-4.658-12.111-5.457s-3.859-2-4.658-3.726,0-4.791,0-4.791.637-2.133.765-2.471a20.326,20.326,0,0,0,.894-3.4c1.38-.155,2.347-3.469,2.347-5.838,0-1.812-.565-2.552-1.448-2.81.1-2.106.134-4.1.134-5.71,0-7.9-5.81-12.028-12.231-12.117v0l-.07,0-.07,0v0c-6.421.089-12.231,4.219-12.231,12.117,0,1.607.034,3.6.134,5.71-.883.259-1.448,1-1.448,2.81,0,2.369.966,5.683,2.347,5.838a20.326,20.326,0,0,0,.894,3.4c.128.337.765,2.471.765,2.471s.8,3.061,0,4.791-2.662,2.928-4.658,3.726-9.581,5.057-12.11,5.457a9.073,9.073,0,0,0-6.122,3.061,17.333,17.333,0,0,0-4.657,9.227,50.9,50.9,0,0,0-.666,9.67c.067,2.939,1.331,4.258.932,6.122s-1.1,2.4-1.015,9.981,1.235,11.045-.007,14.639a50.846,50.846,0,0,0-2.7,14.9c0,5.19.8,9.449.931,14.772s-.4,6.9-.133,9.7.532,3.606.665,6.667-.266,7.319,0,8.65,1.464,3.061,1.863,4.259,3.193,4.258,4.258,5.722,2.263,1.6,3.46,2.262,1.6-.665.665-2-2-1.464-2.262-1.863-.8-1.6-1.464-2.662a14.668,14.668,0,0,1-1.464-4.259c-.266-1.331.4-2.794.932-2.794s.533,1.863,1.864,3.859,1.6,1.863,2.4,1.863-.134-3.194-.4-5.19-.266-4.259-.665-7.053a15.648,15.648,0,0,0-2.4-5.856c-.532-.932-.4-3.194.266-5.855s3.194-11.844,4.258-17.035a59.953,59.953,0,0,0,1.064-11.711c.133-3.327,0-4.215.133-6.167s1.708-15.792,1.863-16.457,2.529,9.981,3.061,13.175-1.2,9.715-1.6,12.376.4,4.658-.266,7.054a52.388,52.388,0,0,0-2,8.65c-.4,3.46-2.8,9.049-2.928,12.244s.4,14.506.665,17.7,1.02,14.639,2.905,22.224,2.817,10.913,3.482,13.175.8,4.259,1.065,9.449.8,7.852.666,9.448-1.738,4.86-2.085,11.18c-.443,8.073,7.409,38.725,7.674,40.455a10,10,0,0,1-1.863,6.92c-1.6,1.863-3.594,3.859-4.658,4.924s-4.126,2-3.594,3.327a1.886,1.886,0,0,0,2.4,1.065c.665-.133,2.262.16,3.194.08s5.19.241,6.654.014,4.125.481,5.19.082,2.262-.576,2.528-2.839a13.493,13.493,0,0,0,0-5.19c-.4-1.6.891-2.041.253-4.924-.38-1.711-1.051-2-1.45-4.259s-.322-6.5.344-14.351,1.615-14.428,1.3-19.473c-.179-2.839-2.087-9.165-1.688-10.895,0,0,2.159-7.311,1.859-11.171s.516-17.8.85-22.629c.275-3.985.976-8.916,1.508-15.437s.686-7.79.924-11.535c.033-.25.725-.4.781,0,.238,3.744.391,5.013.924,11.535s1.233,11.451,1.508,15.437c.333,4.828,1.151,18.769.85,22.629s1.859,11.171,1.859,11.171c.4,1.73-1.509,8.055-1.688,10.895-.318,5.045.631,11.62,1.3,19.473s.743,12.089.344,14.351-1.07,2.548-1.45,4.259c-.639,2.882.652,3.327.253,4.924a13.487,13.487,0,0,0,0,5.19c.266,2.263,1.464,2.44,2.528,2.839s3.727-.31,5.19-.082,5.722-.095,6.654-.014,2.529-.213,3.194-.08a1.886,1.886,0,0,0,2.4-1.065c.532-1.331-2.529-2.262-3.594-3.327s-3.061-3.061-4.658-4.924a10,10,0,0,1-1.863-6.92c.266-1.73,8.117-32.382,7.674-40.455-.348-6.321-1.952-9.583-2.085-11.18s.4-4.258.666-9.448.4-7.186,1.064-9.449,1.6-5.589,3.482-13.175,2.64-19.03,2.905-22.224.8-14.506.665-17.7S516.6,227.5,516.2,224.043a52.393,52.393,0,0,0-2-8.65c-.665-2.4.133-4.392-.266-7.054s-2.129-9.182-1.6-12.376,2.905-13.84,3.061-13.175,1.73,14.506,1.863,16.457,0,2.84.133,6.167a59.946,59.946,0,0,0,1.064,11.711c1.065,5.19,3.594,14.373,4.258,17.035s.8,4.924.266,5.855a15.646,15.646,0,0,0-2.4,5.856c-.4,2.794-.4,5.057-.665,7.053s-1.2,5.19-.4,5.19,1.065.133,2.4-1.863,1.331-3.859,1.864-3.859,1.2,1.464.932,2.794a14.674,14.674,0,0,1-1.465,4.259c-.666,1.065-1.2,2.263-1.464,2.662s-1.331.532-2.262,1.863-.532,2.662.666,2,2.4-.8,3.46-2.262,3.859-4.525,4.258-5.722,1.6-2.928,1.863-4.259-.133-5.589,0-8.65.4-3.859.665-6.667S530.17,234.025,530.3,228.7Z" fill="#90c9f8"/>
    </g>
    <g id="Elipse_621" data-name="Elipse 621" transform="translate(751 1944)" fill="none" stroke="#feb64f" stroke-width="3">
      <circle cx="189" cy="189" r="189" stroke="none"/>
      <circle cx="189" cy="189" r="187.5" fill="none"/>
    </g>
    <circle id="Elipse_622" data-name="Elipse 622" cx="40" cy="40" r="40" transform="translate(1060 2001)" fill="#feb64f"/>
    <circle id="Elipse_622-2" data-name="Elipse 622" cx="40" cy="40" r="40" transform="translate(735 2001)" fill="#feb64f"/>
    <circle id="Elipse_622-3" data-name="Elipse 622" cx="40" cy="40" r="40" transform="translate(1060 2196)" fill="#feb64f"/>
    <circle id="Elipse_622-4" data-name="Elipse 622" cx="40" cy="40" r="40" transform="translate(735 2196)" fill="#feb64f"/>
    <g id="together" transform="translate(755 2021)">
      <g id="Grupo_11336" data-name="Grupo 11336" transform="translate(0 0)">
        <path id="Trazado_10746" data-name="Trazado 10746" fill="#652222"/>
      </g>
      <g id="Grupo_11337" data-name="Grupo 11337" transform="translate(0 0.43)">
        <path id="Trazado_10747" data-name="Trazado 10747" d="M40,16.2V14.274a3.87,3.87,0,0,0-1.707-3.2,3.656,3.656,0,1,0-6.577-.739,18.929,18.929,0,0,0-10.3-3.965.586.586,0,1,0-.086,1.169A17.78,17.78,0,0,1,31.432,11.6a3.859,3.859,0,0,0-1.075,2.669V16.2a1.457,1.457,0,0,0,1.454,1.456h4.367a18.025,18.025,0,0,1,.372,14.83,3.654,3.654,0,0,0-4.487,5.3,3.875,3.875,0,0,0-1.6,2.314,17.993,17.993,0,0,1-20.914.043,3.879,3.879,0,0,0-1.613-2.357A3.656,3.656,0,0,0,3.408,32.5a18.025,18.025,0,0,1,.365-14.846H8.187A1.458,1.458,0,0,0,9.643,16.2V14.274a3.861,3.861,0,0,0-1.1-2.694,17.8,17.8,0,0,1,10.1-4.048.586.586,0,1,0-.086-1.169A18.954,18.954,0,0,0,8.3,10.277a3.657,3.657,0,1,0-6.595.792A3.868,3.868,0,0,0,0,14.274V16.2a1.457,1.457,0,0,0,1.454,1.456H2.479A19.2,19.2,0,0,0,2.4,33.13a3.649,3.649,0,0,0-.7,4.652A3.869,3.869,0,0,0,0,40.987V42.91a1.457,1.457,0,0,0,1.454,1.456H8.186A1.458,1.458,0,0,0,9.643,42.91V41.618a19.175,19.175,0,0,0,20.715-.032V42.91a1.457,1.457,0,0,0,1.454,1.456h6.732A1.458,1.458,0,0,0,40,42.91V40.987a3.87,3.87,0,0,0-1.707-3.2,3.647,3.647,0,0,0-.732-4.683,19.2,19.2,0,0,0-.089-15.448h1.072A1.458,1.458,0,0,0,40,16.2ZM4.82,6.672A2.485,2.485,0,1,1,2.337,9.155,2.487,2.487,0,0,1,4.82,6.672ZM1.454,16.48a.287.287,0,0,1-.282-.284V14.274a2.7,2.7,0,0,1,1.31-2.309,3.647,3.647,0,0,0,4.678,0,2.7,2.7,0,0,1,1.311,2.309V16.2a.288.288,0,0,1-.284.284ZM4.82,33.386a2.485,2.485,0,1,1-2.483,2.484A2.488,2.488,0,0,1,4.82,33.386ZM8.471,42.91a.288.288,0,0,1-.284.284H1.454a.287.287,0,0,1-.282-.284V40.987a2.7,2.7,0,0,1,1.31-2.309,3.647,3.647,0,0,0,4.678,0,2.7,2.7,0,0,1,1.311,2.309V42.91Zm30.357-1.922V42.91a.288.288,0,0,1-.284.284H31.811a.287.287,0,0,1-.282-.284V40.987a2.7,2.7,0,0,1,1.31-2.309,3.647,3.647,0,0,0,4.678,0A2.7,2.7,0,0,1,38.828,40.987Zm-1.165-5.118a2.485,2.485,0,1,1-2.486-2.484A2.488,2.488,0,0,1,37.663,35.869Zm-2.486-29.2a2.485,2.485,0,1,1-2.484,2.484A2.487,2.487,0,0,1,35.178,6.672ZM31.811,16.48a.287.287,0,0,1-.282-.284V14.274a2.7,2.7,0,0,1,1.31-2.309,3.647,3.647,0,0,0,4.678,0,2.7,2.7,0,0,1,1.311,2.309V16.2a.288.288,0,0,1-.284.284Z" transform="translate(0 -5.5)" fill="#652222"/>
        <path id="Trazado_10748" data-name="Trazado 10748" d="M113.008,105.03h-2.567a1.5,1.5,0,0,0-1.5,1.5v.5a10.472,10.472,0,0,0-2.459,1.018l-.354-.354a1.5,1.5,0,0,0-2.124,0l-1.814,1.814a1.5,1.5,0,0,0,0,2.124l.354.354a10.471,10.471,0,0,0-1.018,2.459h-.5a1.5,1.5,0,0,0-1.5,1.5v2.567a1.5,1.5,0,0,0,1.5,1.5h.5a10.442,10.442,0,0,0,1.018,2.458l-.353.354a1.5,1.5,0,0,0,0,2.125L104,126.766a1.5,1.5,0,0,0,2.124,0l.354-.354a10.473,10.473,0,0,0,2.459,1.018v.5a1.5,1.5,0,0,0,1.5,1.5h2.567a1.5,1.5,0,0,0,1.5-1.5v-.5a10.435,10.435,0,0,0,2.458-1.018l.354.353a1.487,1.487,0,0,0,1.06.44h0a1.492,1.492,0,0,0,1.063-.439l1.814-1.814a1.5,1.5,0,0,0,0-2.124l-.355-.356a10.44,10.44,0,0,0,1.018-2.458h.5a1.5,1.5,0,0,0,1.5-1.5v-2.567a1.5,1.5,0,0,0-1.5-1.5h-.5a10.472,10.472,0,0,0-1.018-2.459l.354-.354a1.5,1.5,0,0,0,0-2.124l-1.814-1.814a1.492,1.492,0,0,0-1.063-.439h0a1.486,1.486,0,0,0-1.058.438l-.356.355a10.434,10.434,0,0,0-2.458-1.018v-.5a1.5,1.5,0,0,0-1.5-1.5Zm3.735,4.253a.586.586,0,0,0,.727-.08l.682-.68a.325.325,0,0,1,.231-.094h0a.33.33,0,0,1,.234.1l1.814,1.814a.331.331,0,0,1,0,.467l-.678.678a.586.586,0,0,0-.081.727,9.318,9.318,0,0,1,1.221,2.951.586.586,0,0,0,.572.458h.959a.333.333,0,0,1,.329.329v2.567a.333.333,0,0,1-.329.329h-.959a.586.586,0,0,0-.572.458,9.28,9.28,0,0,1-1.221,2.948.586.586,0,0,0,.08.727l.68.682a.325.325,0,0,1,.095.231.33.33,0,0,1-.1.235l-1.814,1.814a.332.332,0,0,1-.468,0l-.68-.678a.586.586,0,0,0-.727-.08,9.281,9.281,0,0,1-2.948,1.221.586.586,0,0,0-.458.572v.959a.333.333,0,0,1-.329.329h-2.567a.333.333,0,0,1-.329-.329v-.959a.586.586,0,0,0-.458-.572,9.32,9.32,0,0,1-2.951-1.221.586.586,0,0,0-.727.081l-.678.678a.332.332,0,0,1-.467,0l-1.814-1.814a.332.332,0,0,1,0-.468l.678-.68a.586.586,0,0,0,.08-.727,9.28,9.28,0,0,1-1.221-2.948.586.586,0,0,0-.572-.458h-.959a.333.333,0,0,1-.329-.329v-2.567a.333.333,0,0,1,.329-.329h.959a.586.586,0,0,0,.572-.458,9.316,9.316,0,0,1,1.221-2.951.586.586,0,0,0-.081-.727l-.678-.678a.332.332,0,0,1,0-.467l1.814-1.814a.332.332,0,0,1,.467,0l.678.678a.586.586,0,0,0,.727.081,9.316,9.316,0,0,1,2.951-1.221.586.586,0,0,0,.458-.572v-.959a.333.333,0,0,1,.329-.329h2.567a.333.333,0,0,1,.329.329v.959a.586.586,0,0,0,.458.572A9.273,9.273,0,0,1,116.742,109.283Z" transform="translate(-91.749 -97.254)" fill="#652222"/>
        <path id="Trazado_10749" data-name="Trazado 10749" d="M203.73,216.7a2.791,2.791,0,0,0,0,3.849l.009.009,2.722,2.7a.793.793,0,0,0,1.239,0l2.393-2.373.328-.323.011-.011a2.8,2.8,0,0,0,0-3.847,2.463,2.463,0,0,0-3.35-.027A2.463,2.463,0,0,0,203.73,216.7Zm2.722.976c.039.036.071.066.1.09a.736.736,0,0,0,.53.257.745.745,0,0,0,.534-.259c.025-.024.056-.054.093-.087a1.372,1.372,0,0,1,1.881-.163,1.634,1.634,0,0,1,0,2.216l-2.511,2.489-2.19-2.17-.321-.319a1.63,1.63,0,0,1,0-2.216,1.37,1.37,0,0,1,1.879.162Z" transform="translate(-187.104 -199.582)" fill="#652222"/>
        <path id="Trazado_10750" data-name="Trazado 10750" d="M168.946,168.434a.586.586,0,0,0,.457.691,6.245,6.245,0,1,1-2.5,0,.586.586,0,0,0-.232-1.149,7.421,7.421,0,1,0,2.968,0A.586.586,0,0,0,168.946,168.434Z" transform="translate(-148.168 -155.268)" fill="#652222"/>
      </g>
    </g>
    <g id="ambient" transform="translate(1080.467 2216.485)">
      <path id="Trazado_10751" data-name="Trazado 10751" d="M7.33,318.748a7.325,7.325,0,0,0,5.63-12.018l1.505-1.506-.942-.942-1.505,1.506a7.33,7.33,0,1,0-4.688,12.96Zm0-13.328a6,6,0,1,1-6,6,6,6,0,0,1,6-6Zm0,0" transform="translate(0.008 -278.764)" fill="#652222"/>
      <path id="Trazado_10752" data-name="Trazado 10752" d="M7.407,14.829a7.3,7.3,0,0,0,4.688-1.7L13.6,14.634l.942-.942-1.505-1.505a7.327,7.327,0,1,0-5.63,2.643Zm0-13.328a6,6,0,1,1-6,6,6,6,0,0,1,6-6Zm0,0" transform="translate(-0.069 -0.169)" fill="#652222"/>
      <path id="Trazado_10753" data-name="Trazado 10753" d="M166.746,159.366a7.33,7.33,0,1,0-7.972,7.3c.212.021.427.033.642.033s.429-.012.642-.033A7.337,7.337,0,0,0,166.746,159.366Zm-4,4.82a5.315,5.315,0,0,1-2.834,1.153c-.165.014-.33.025-.5.025s-.333-.011-.5-.025a5.318,5.318,0,0,1-2.834-1.153v-.044a8.3,8.3,0,0,1,1.961-3.129l.429-.429a.667.667,0,0,0,0-.942,1.333,1.333,0,1,1,1.884,0,.667.667,0,0,0,0,.942l.429.429a8.307,8.307,0,0,1,1.961,3.129Zm-1.019-4.115-.016-.017a2.666,2.666,0,1,0-4.594,0l-.016.017a9.629,9.629,0,0,0-2.138,3.3,6,6,0,1,1,8.9,0A9.634,9.634,0,0,0,161.728,160.071Zm0,0" transform="translate(-139.415 -139.374)" fill="#652222"/>
      <path id="Trazado_10754" data-name="Trazado 10754" d="M51.418,54.75a3.332,3.332,0,1,0-3.332-3.332A3.332,3.332,0,0,0,51.418,54.75Zm0-5.331a2,2,0,1,1-2,2A2,2,0,0,1,51.418,49.419Zm0,0" transform="translate(-44.08 -44.088)" fill="#652222"/>
      <path id="Trazado_10755" data-name="Trazado 10755" d="M48.752,358.75h5.331a.666.666,0,0,0,.666-.666v-5.331a.666.666,0,0,0-.666-.666H48.752a.666.666,0,0,0-.666.666v5.331A.666.666,0,0,0,48.752,358.75Zm.666-5.331h4v4h-4Zm0,0" transform="translate(-44.08 -322.764)" fill="#652222"/>
      <path id="Trazado_10756" data-name="Trazado 10756" d="M355.984,48.663a.693.693,0,0,0-1.157,0l-2.666,4.665a.666.666,0,0,0,.578,1h5.331a.666.666,0,0,0,.579-1Zm-2.1,4.332,1.517-2.655,1.518,2.655Zm0,0" transform="translate(-322.744 -44.331)" fill="#652222"/>
      <path id="Trazado_10757" data-name="Trazado 10757" d="M311.417,318.748a7.33,7.33,0,1,0-4.687-12.96l-1.506-1.506-.942.942,1.506,1.506a7.325,7.325,0,0,0,5.63,12.018Zm0-13.328a6,6,0,1,1-6,6A6,6,0,0,1,311.417,305.42Zm0,0" transform="translate(-278.755 -278.764)" fill="#652222"/>
      <path id="Trazado_10758" data-name="Trazado 10758" d="M355.018,351.951a.666.666,0,0,0,.8,0l2.666-2a.666.666,0,0,0,.266-.533v-2.666a.666.666,0,0,0-.266-.533l-2.666-2a.666.666,0,0,0-.8,0l-2.666,2a.667.667,0,0,0-.267.533v2.666a.667.667,0,0,0,.267.533Zm-1.6-4.865,2-1.5,2,1.5v2l-2,1.5-2-1.5Zm0,0" transform="translate(-322.756 -315.432)" fill="#652222"/>
      <path id="Trazado_10759" data-name="Trazado 10759" d="M64.086,200.086h1.333v1.333H64.086Zm0,0" transform="translate(-58.747 -183.426)" fill="#652222"/>
      <path id="Trazado_10760" data-name="Trazado 10760" d="M64.086,232.086h1.333v1.333H64.086Zm0,0" transform="translate(-58.747 -212.761)" fill="#652222"/>
      <path id="Trazado_10761" data-name="Trazado 10761" d="M64.086,264.086h1.333v1.333H64.086Zm0,0" transform="translate(-58.747 -242.095)" fill="#652222"/>
      <path id="Trazado_10762" data-name="Trazado 10762" d="M424.086,200.086h1.333v1.333h-1.333Zm0,0" transform="translate(-388.759 -183.426)" fill="#652222"/>
      <path id="Trazado_10763" data-name="Trazado 10763" d="M424.086,232.086h1.333v1.333h-1.333Zm0,0" transform="translate(-388.759 -212.761)" fill="#652222"/>
      <path id="Trazado_10764" data-name="Trazado 10764" d="M424.086,264.086h1.333v1.333h-1.333Zm0,0" transform="translate(-388.759 -242.095)" fill="#652222"/>
      <path id="Trazado_10765" data-name="Trazado 10765" d="M200.086,40.086h1.333v1.333h-1.333Zm0,0" transform="translate(-183.418 -36.754)" fill="#652222"/>
      <path id="Trazado_10766" data-name="Trazado 10766" d="M232.086,40.086h1.333v1.333h-1.333Zm0,0" transform="translate(-212.753 -36.754)" fill="#652222"/>
      <path id="Trazado_10767" data-name="Trazado 10767" d="M264.086,40.086h1.333v1.333h-1.333Zm0,0" transform="translate(-242.087 -36.754)" fill="#652222"/>
      <path id="Trazado_10768" data-name="Trazado 10768" d="M200.086,424.086h1.333v1.333h-1.333Zm0,0" transform="translate(-183.418 -388.767)" fill="#652222"/>
      <path id="Trazado_10769" data-name="Trazado 10769" d="M232.086,424.086h1.333v1.333h-1.333Zm0,0" transform="translate(-212.753 -388.767)" fill="#652222"/>
      <path id="Trazado_10770" data-name="Trazado 10770" d="M264.086,424.086h1.333v1.333h-1.333Zm0,0" transform="translate(-242.087 -388.767)" fill="#652222"/>
      <path id="Trazado_10771" data-name="Trazado 10771" d="M311.425.086a7.331,7.331,0,0,0-6.236,11.182l-.42,2.71a.666.666,0,0,0,.658.768.625.625,0,0,0,.139-.015l2.89-.62a7.238,7.238,0,0,0,2.968.634,7.33,7.33,0,1,0,0-14.661Zm0,13.328a5.941,5.941,0,0,1-2.6-.6.662.662,0,0,0-.29-.067.717.717,0,0,0-.139.015l-2.161.467.31-2a.667.667,0,0,0-.105-.473,6,6,0,1,1,4.984,2.661Zm0,0" transform="translate(-278.764 -0.086)" fill="#652222"/>
    </g>
    <g id="adn" transform="translate(755 2216)">
      <path id="Trazado_10740" data-name="Trazado 10740" d="M9.723,62.955A2.985,2.985,0,0,0,8.2,62.14V56.3a1.761,1.761,0,0,1,1.172,1.657v2.982a.586.586,0,0,0,1.172,0V57.961A2.935,2.935,0,0,0,8.2,55.09V53.273a2.934,2.934,0,0,0-2.4-2.881A2.967,2.967,0,0,0,3.012,48,2.93,2.93,0,0,0,0,50.929V67.658a4.114,4.114,0,0,0,.537,2.029l5.669,9.762-.35,1.285H3.96a.586.586,0,0,0-.565.432L2.755,83.51a.586.586,0,0,0,.565.74h15.5a.586.586,0,0,0,.586-.586V74.829A5.241,5.241,0,0,0,17.866,71.1ZM5.859,51.616a1.761,1.761,0,0,1,1.172,1.657v8.861a2.871,2.871,0,0,0-1.172.515ZM18.235,83.078H4.087l.32-1.172H18.235v1.172Zm0-2.344H7.07L7.4,79.521a.586.586,0,0,0-.059-.448L1.553,69.1a2.935,2.935,0,0,1-.382-1.446V50.929A1.758,1.758,0,0,1,2.98,49.172a1.8,1.8,0,0,1,1.708,1.806V65.042a2.906,2.906,0,0,0,.858,2.022l8.174,8.174a.586.586,0,0,0,.829-.829L6.374,66.235a1.758,1.758,0,0,1,.036-2.521,1.8,1.8,0,0,1,2.485.069l8.143,8.142a4.077,4.077,0,0,1,1.2,2.9Z" transform="translate(0 -44.25)" fill="#652222"/>
      <path id="Trazado_10741" data-name="Trazado 10741" d="M282.109,48.829A2.908,2.908,0,0,0,279.985,48a2.967,2.967,0,0,0-2.79,2.391,2.934,2.934,0,0,0-2.4,2.881v1.817a2.935,2.935,0,0,0-2.344,2.871v2.982a.586.586,0,0,0,1.172,0V57.96a1.761,1.761,0,0,1,1.172-1.657V62.14a2.985,2.985,0,0,0-1.52.814L265.13,71.1a5.241,5.241,0,0,0-1.541,3.731v8.835a.586.586,0,0,0,.586.586h15.5a.586.586,0,0,0,.565-.74l-.639-2.344a.586.586,0,0,0-.565-.432h-1.9l-.35-1.285,5.672-9.767A4.11,4.11,0,0,0,283,67.657V50.929A2.906,2.906,0,0,0,282.109,48.829Zm-6.145,4.444a1.761,1.761,0,0,1,1.172-1.657V62.649a2.872,2.872,0,0,0-1.172-.515Zm2.624,28.633.32,1.172H264.761V81.905Zm3.235-14.248a2.929,2.929,0,0,1-.379,1.441l-5.792,9.974a.586.586,0,0,0-.059.448l.331,1.213H264.761V74.828a4.077,4.077,0,0,1,1.2-2.9l8.143-8.143a1.8,1.8,0,0,1,2.485-.069,1.758,1.758,0,0,1,.036,2.521l-8.174,8.174a.586.586,0,1,0,.829.829l8.174-8.174a2.905,2.905,0,0,0,.858-2.022V50.977a1.8,1.8,0,0,1,1.708-1.806,1.758,1.758,0,0,1,1.808,1.757Z" transform="translate(-242.996 -44.249)" fill="#652222"/>
      <path id="Trazado_10742" data-name="Trazado 10742" d="M156.809,12.559a9,9,0,0,0-2.309,6.106,1.758,1.758,0,0,0,3.415.586h9.03a1.758,1.758,0,0,0,3.415-.586c0-4.027-2.274-6.476-4.889-8.453a16.437,16.437,0,0,0,2.58-2.349,9,9,0,0,0,2.309-6.105,1.758,1.758,0,0,0-3.415-.586h-9.03a1.758,1.758,0,0,0-3.415.586c0,4.027,2.274,6.476,4.889,8.453A16.438,16.438,0,0,0,156.809,12.559Zm1.235,5.52a5.454,5.454,0,0,1,.242-1.172h8.284a5.416,5.416,0,0,1,.246,1.172Zm7.074-3.516a7.315,7.315,0,0,1,.906,1.172h-7.2a7.185,7.185,0,0,1,.906-1.172Zm-4.1-1.172c.442-.353.915-.7,1.409-1.044.491.345.963.69,1.4,1.044Zm8.167,5.273a.586.586,0,0,1-1.172,0c0-3.279-2.084-5.246-4.56-7.026.339-.233.681-.467,1.021-.706C167.318,13.028,169.188,15.186,169.188,18.665ZM166.816,2.344a5.456,5.456,0,0,1-.242,1.172H158.29a5.414,5.414,0,0,1-.246-1.172Zm-7.074,3.516a7.318,7.318,0,0,1-.906-1.172h7.2a7.18,7.18,0,0,1-.906,1.172Zm4.1,1.172c-.442.353-.915.7-1.409,1.044-.491-.345-.963-.69-1.4-1.044Zm-8.167-5.273a.586.586,0,1,1,1.172,0c0,3.279,2.084,5.246,4.56,7.026-.339.233-.681.467-1.022.706C157.541,7.394,155.672,5.236,155.672,1.758Zm6.427,7.97c2.909-1.992,5.917-4.052,5.917-7.97a.586.586,0,0,1,1.172,0c0,4.536-3.267,6.773-6.427,8.937-2.909,1.992-5.917,4.052-5.917,7.97a.586.586,0,0,1-1.172,0C155.672,14.129,158.939,11.892,162.1,9.728Z" transform="translate(-142.43 0)" fill="#652222"/>
    </g>
    <g id="human_1_" data-name="human (1)" transform="translate(1079.825 2021.313)">
      <g id="Grupo_11325" data-name="Grupo 11325" transform="translate(17.334 13.337)">
        <g id="Grupo_11324" data-name="Grupo 11324">
          <path id="Trazado_10743" data-name="Trazado 10743" d="M228.027,160.049H219.36a.667.667,0,0,0-.667.667v2.667a.667.667,0,0,0,.667.667h2a1.333,1.333,0,0,1,0,2.667h-2a.667.667,0,0,0-.667.667v3.333h-10a.667.667,0,0,0-.667.667v8.667a2.667,2.667,0,0,0,2.667,2.667h17.333a2.667,2.667,0,0,0,2.667-2.667V162.716A2.667,2.667,0,0,0,228.027,160.049Zm-9.333,21.333h-8a1.333,1.333,0,0,1-1.333-1.333v-8h9.333v1.333H217.36a2.667,2.667,0,0,0,0,5.333h1.333Zm10.667-1.333a1.333,1.333,0,0,1-1.333,1.333h-8v-3.333a.667.667,0,0,0-.667-.667h-2a1.333,1.333,0,0,1,0-2.667h2a.667.667,0,0,0,.667-.667v-2h2v1.333a2.667,2.667,0,1,0,5.333,0v-1.333h2Zm0-9.333h-2.667a.667.667,0,0,0-.667.667v2a1.333,1.333,0,0,1-2.667,0v-2a.667.667,0,0,0-.667-.667h-2.667v-2.667h1.333a2.667,2.667,0,0,0,0-5.333h-1.333v-1.333h8a1.333,1.333,0,0,1,1.333,1.333Z" transform="translate(-208.027 -160.049)" fill="#652222"/>
        </g>
      </g>
      <g id="Grupo_11327" data-name="Grupo 11327" transform="translate(0 0)">
        <g id="Grupo_11326" data-name="Grupo 11326" transform="translate(0)">
          <path id="Trazado_10744" data-name="Trazado 10744" d="M29.355,2.671H28.022v-2A.667.667,0,0,0,27.355,0H18.688a2.667,2.667,0,0,0-2.667,2.667v7.467l-2.758,1.333A5.433,5.433,0,0,0,11.746,10.1a5.333,5.333,0,1,0-5.126-.191A5.346,5.346,0,0,0,3.8,13.347L1.141,21.71a10,10,0,0,0,.429,7.175,8.649,8.649,0,0,1-.139,7.477L.092,39.039a.667.667,0,0,0,.6.965H8.022a.667.667,0,0,0,.667-.667,3.315,3.315,0,0,0-1.783-2.945l.319-.636a10.077,10.077,0,0,0,.9-6.272l-.495-2.72A.646.646,0,0,1,8.9,26.533L9.8,31.515a13.739,13.739,0,0,1,.221,2.452v5.371a.667.667,0,0,0,.667.667h7.333a.667.667,0,0,0,.667-.667,3.335,3.335,0,0,0-.023-.388,2.952,2.952,0,0,0-1.643-2.32,3.231,3.231,0,0,0-2.4-.213l.444-2.219a15.081,15.081,0,0,0,.292-2.95V25.28l-.779-8.927L19.2,14.145A2.491,2.491,0,0,0,20.678,12h6.677a.667.667,0,0,0,.667-.667V8h1.333a2.667,2.667,0,1,0,0-5.333Zm-24,2.667a4,4,0,1,1,4,4A4,4,0,0,1,5.355,5.338Zm9.263,32.521a1.9,1.9,0,0,1,1.8-.039,1.675,1.675,0,0,1,.811.851H11.355v-4.7a15.05,15.05,0,0,0-.243-2.691L10.207,26.3a1.979,1.979,0,1,0-3.9.674L6.314,27l.5,2.72a8.738,8.738,0,0,1-.777,5.437l-.647,1.294a.667.667,0,0,0,.437.95,1.993,1.993,0,0,1,1.419,1.267H1.767l.855-1.712a9.979,9.979,0,0,0,.16-8.625,8.666,8.666,0,0,1-.372-6.22l2.667-8.4A4.1,4.1,0,0,1,9.8,10.745a3.934,3.934,0,0,1,2.231,1.317l-3.94,1.9a2.474,2.474,0,1,0,2.14,4.461L13.3,16.965l.727,8.372v5.91a13.8,13.8,0,0,1-.267,2.688l-.711,3.551a.667.667,0,0,0,.985.71Zm4.039-24.929-.02.009L9.654,17.224a1.141,1.141,0,0,1-.987-2.057l9.055-4.373a1.165,1.165,0,0,1,1.633,1.068A1.167,1.167,0,0,1,18.657,12.929Zm10.7-6.259h-2a.667.667,0,0,0-.667.667v3.333h-6.3a2.491,2.491,0,0,0-3.033-1.159V2.671a1.333,1.333,0,0,1,1.333-1.333h8v2A.667.667,0,0,0,27.355,4h2a1.333,1.333,0,0,1,0,2.667Z" transform="translate(-0.022 0)" fill="#652222"/>
        </g>
      </g>
      <g id="Grupo_11329" data-name="Grupo 11329" transform="translate(17.529 16.004)">
        <g id="Grupo_11328" data-name="Grupo 11328">
          <path id="Trazado_10745" data-name="Trazado 10745" d="M219.7,193.578l-2.2,2.2v-3.724h-1.333v5.057l-.667.667-.667-.667v-2.391h-1.333v1.057l-2.2-2.2-.943.943,4.667,4.667a.667.667,0,0,0,.943,0l4.667-4.667Z" transform="translate(-210.371 -192.049)" fill="#652222"/>
        </g>
      </g>
      <g id="Grupo_11331" data-name="Grupo 11331" transform="translate(20.667 16.004)">
        <g id="Grupo_11330" data-name="Grupo 11330">
          <rect id="Rectángulo_2863" data-name="Rectángulo 2863" width="1.333" height="1.333" fill="#652222"/>
        </g>
      </g>
      <g id="Grupo_11333" data-name="Grupo 11333" transform="translate(20.667 13.337)">
        <g id="Grupo_11332" data-name="Grupo 11332">
          <rect id="Rectángulo_2864" data-name="Rectángulo 2864" width="1.333" height="1.333" fill="#652222"/>
        </g>
      </g>
      <g id="Grupo_11335" data-name="Grupo 11335" transform="translate(23.334 13.337)">
        <g id="Grupo_11334" data-name="Grupo 11334">
          <rect id="Rectángulo_2865" data-name="Rectángulo 2865" width="1.333" height="1.333" fill="#652222"/>
        </g>
      </g>
    </g>
  </g>
</svg>
