<svg xmlns="http://www.w3.org/2000/svg" width="550" height="357.656" viewBox="0 0 550 357.656">
  <g id="Grupo_10004" data-name="Grupo 10004" transform="translate(1714 -127.52)">
    <path id="Trazado_8721" data-name="Trazado 8721" d="M-1461.673,668.114a462.569,462.569,0,0,0-48.292,2.154c-6.062.653-12,2.089-18.073,2.669-12.137,1.158-24.056,3.317-36.236,4.313-9.808.8-19.657,1.275-29.437,2.292a106.935,106.935,0,0,1-28.418-.842c-6.736-1.167-13.5-1.824-20.124-3.7a84.769,84.769,0,0,0-23.176-3.541c-11.007.077-21.726.086-32.26,3.788-3.7,1.3-8.224,3.436-11.032,6.162-6.428,6.243-7.3,21.819-.88,28.293,10.81,10.9,33.881,15.173,49.034,15.374,16.6.221,32.733-.972,49.362-1.674,15.452-.652,30.864-1.58,46.341-1.548,31.61.067,63.223,0,94.776-2.045,29.644-1.921,59.363-1.262,89.072-1.262,30.466,0,60.726.232,90.972,4.153,13.178,1.709,26.6,2.307,39.849,3.5,11.862,1.072,23.26-.021,35.075-1.011a85.865,85.865,0,0,0,28.789-7.471c7.135-3.3,19.853-13.56,22.041-21.442,6.134-22.1-86.439-21.566-100.653-21.516-15.9.056-31.927.562-47.815-.025a116.065,116.065,0,0,1-19.791-2.9c-6.5-1.381-13.043-1.03-19.631-1.61-27.475-2.42-55.012-2.066-82.575-2.066C-1443.725,668.164-1452.7,668.088-1461.673,668.114Z" transform="translate(0 -241.47)" fill="#1161a2"/>
    <g id="Grupo_10001" data-name="Grupo 10001" transform="translate(-1673.845 309.177)">
      <path id="Trazado_8722" data-name="Trazado 8722" d="M-1630.808,681.994l-7.615-.193-1.945,6.425.192.057-.049.005,12.589,7.46,5.986.665.761-6.841-1.617-1.185Z" transform="translate(1640.955 -556.763)" fill="#3b455a"/>
      <path id="Trazado_8723" data-name="Trazado 8723" d="M-1597.392,582.609l7.368-.335,11.17-111.643-38.771-8.342.531,2.482-24.335-8.949,7.672,65.2-4.446,56.255-.119.375.089.01-.01.123,7.342.7,0-.007.273.03,16.394-50.12,4.637-28.527,4.8,22.46Z" transform="translate(1641.429 -455.823)" fill="#3b455a"/>
      <path id="Trazado_8724" data-name="Trazado 8724" d="M-1563.064,689.914l-1.026,6.634,17.437,2.628.914-4.6-9.759-5.533Z" transform="translate(1606.883 -559.996)" fill="#3b455a"/>
    </g>
    <path id="Trazado_8725" data-name="Trazado 8725" d="M-1088.957,219.483q-.476-2.411-1.012-4.752c-5.258-23.011-14.789-41.012-29.314-54.318-31.823-29.149-68.538-37.124-107.525-30.928a92.324,92.324,0,0,0-10.768,2.388l7.542,31.586,6.681,27.975a7.86,7.86,0,0,0,12.61,1.989c9.016-9.135,21.754-13.771,31.882-3.247,8.211,8.533,7.715,23.056-1.1,30.979-4.329,3.892-9.006,4.759-13.875,4.3a59.775,59.775,0,0,1-10.08-2.126,10.06,10.06,0,0,0-3.217-.345,7.888,7.888,0,0,0-6.826,7.792l6.545,27.4-.012,0,4.354,18.24h0l.157.658.147.62.211-.05,47.275-11.285a7.864,7.864,0,0,1,6.649,10.018c-2.478,8.464-4.439,16.684,2.072,23.934,7.918,8.819,22.441,9.325,30.978,1.117,10.529-10.121,5.9-22.862-3.229-31.883a7.863,7.863,0,0,1,1.264-12.193l28.9-6.9a105.126,105.126,0,0,0,1.03-12.751A96.3,96.3,0,0,0-1088.957,219.483Z" transform="translate(-212.809 0)" fill="#3b455a"/>
    <g id="Grupo_10002" data-name="Grupo 10002" transform="translate(-1571.483 189.37)">
      <path id="Trazado_8726" data-name="Trazado 8726" d="M-1450.616,241.56l3.359-2.26,3.839,1.708,1.917,3.576-1.354,2.722-3.438,1.517,1.191.463-.335.975-5.33,1.753c-1.08-1.406-5.087-2.836-5.665-3.589l3.716-2.542Z" transform="translate(1456.433 -239.3)" fill="#eac1a4"/>
    </g>
    <path id="Trazado_8727" data-name="Trazado 8727" d="M-1603.408,294.878l-.094-.249,6.38,3.468,12.566-4.3,32.153-35.35-8.542-7.722-34.125,26.676s-30.756-13.779-32.85-14.272q-.242-.056-.487-.111c-8.125-1.783-18.535-.956-25.877,2.994a25.669,25.669,0,0,0-3.862,2.74c-3.59,2.9-6.518,4.464-8.066,8.877-1.343,3.832-1.656,8.013-2.4,11.983-1.505,8.067-2.4,16.232-3.605,24.346-2.254,15.216-4.168,30.482-6.579,45.675-1.24,7.82-2.491,15.653-3.077,23.554-.518,6.986-6.82,14.079-10.362,20.34-1.232,2.178,16.467,7.824,18.053,8.193,7.342,1.709,15.152,1.273,22.72,1.307q24.878.113,49.723-1.533c5.5-.364,12.277-1.414,17.156-4.152q.242-.135.456-.285c2.355-1.635,2.406-4.483,2.4-7.335a71.288,71.288,0,0,0-2.2-16.034c-2.337-9.763-4.987-21.521-6.152-34.172-.642-6.969-1.616-13.447-2.752-19.331,7.477-.768,13.514-1.23,13.508-.719s.215-1.537.489-4.262l-.489-.178.157-4.864.876-.5c.266-2.755.479-5.01.479-5.01l-18.781-.365A138.206,138.206,0,0,0-1603.408,294.878Z" transform="translate(-9.696 -55.033)" fill="#fff"/>
    <path id="Trazado_8728" data-name="Trazado 8728" d="M-1587.027,228.709a10.831,10.831,0,0,0-4.112-7.944,11.026,11.026,0,0,1-4.246,2.775c-5.663,2.34-13.536,2.965-14.039,9.191-.168,2.086.926,4.406-.22,6.157a4.35,4.35,0,0,1-1.038,1.044,15.468,15.468,0,0,0,6.364,7.595c-.064.32-.126.64-.172.959-.189,1.331.056,2.938,1.241,3.573a4.053,4.053,0,0,0,1.794.34l3.717.128a.931.931,0,0,0,.716-.176.927.927,0,0,0,.184-.626q.067-1.555.134-3.109l.067-.014a11.555,11.555,0,0,0,6.316-4.228,14.8,14.8,0,0,0,2.15-3.743A25.552,25.552,0,0,0-1587.027,228.709Z" transform="translate(-46.15 -41.65)" fill="#eac1a4"/>
    <path id="Trazado_8729" data-name="Trazado 8729" d="M-1595.791,231.367c-.562-1.238-2.05-1.866-2.579-3.118a4.372,4.372,0,0,1-.257-1.651,22.778,22.778,0,0,1,.936-6.775,23.112,23.112,0,0,0,1.173-4.5c.194-2.245-1.394-4.861-2.228-6.924a12.616,12.616,0,0,0-5.923-6.271c-.328-5.945-6.484-11.35-12.8-9.205-4.359,1.481-7.155,5.89-11.408,7.651-2.439,1.01-5.327,1.138-7.317,2.873-4.46,3.888-.875,12.045-4.54,16.691-.762.966-1.79,1.7-2.555,2.66-1.649,2.078-1.865,4.915-2.013,7.564a8.336,8.336,0,0,0,.064,1.845c.573,6.119,9.456,5.729,12.984,5.337,3.872-.43,2.581-2.581,2.581-2.581l-.141-.172a7.407,7.407,0,0,1,2.6-6.717c.339-.275.706-.524,1.054-.791a4.354,4.354,0,0,0,1.038-1.044c1.146-1.751.052-4.071.22-6.157.5-6.227,8.376-6.851,14.039-9.191a11.026,11.026,0,0,0,4.246-2.775,10.831,10.831,0,0,1,4.112,7.944,25.549,25.549,0,0,1-1.143,11.922,14.787,14.787,0,0,1-2.149,3.743l-.141.3c-1.593,3.43-2.146,5.688,1.9,6.613,2.278.522,6.32,1.495,8.319-.25C-1594.2,237.069-1595.055,232.988-1595.791,231.367Z" transform="translate(-30.678 -28.999)" fill="#3b455a"/>
    <path id="Trazado_8730" data-name="Trazado 8730" d="M-862.729,566.115l-.329-1.509.487-.216-19.846-67.356-.91-62.62-9.652-22.257-6.8.309.205-1.231-12,1.767-7.161.326.025.725-21,3.091-.759,65.626,12.2,83.483h-.663l-5.142,5.141,5.142,5.142,10.283-5.142v-4.01h.055l6.006-78.075.052-.313.237,1.275,40.209,77.651-.382.314-3.779,6.069,5.962,3.946,8.649-7.13Z" transform="translate(-345.521 -126.73)" fill="#3b455a"/>
    <path id="Trazado_8731" data-name="Trazado 8731" d="M-866.118,224.256l.59,3.441A6.186,6.186,0,0,0-866.118,224.256Z" transform="translate(-378.732 -43.21)" fill="none"/>
    <path id="Trazado_8732" data-name="Trazado 8732" d="M-885.089,225.687l-.59-3.441a1.87,1.87,0,0,0-.188-.241c-3.126-3.346-10.208-2.189-14.093-1.372-3.463.728-6.619,2.86-9.95,3.962a25.677,25.677,0,0,0,.581,2.656q.753,2.888,1.508,5.777c.579,2.215,1.414,4.733,3.547,5.566,1.132.442,2.469.315,3.494.969,1.807,1.153,1.56,3.842,2.5,5.769l8.85-.865a44.426,44.426,0,0,0-.47-7.068c1.909-.669,4.045-1.6,5.109-3.185a7.843,7.843,0,0,1-1.389.566C-886.226,233.068-885.2,228.9-885.089,225.687Z" transform="translate(-359.171 -41.2)" fill="#eac1a4"/>
    <path id="Trazado_8733" data-name="Trazado 8733" d="M-889.848,188.474a11.819,11.819,0,0,0-4.043-4c-4-2.234-9.943-2.615-14.366-4.2-7.738-2.773-15.385.819-23.309,1.369-3.669.255-7.907,1.869-8.694,5.461a28.445,28.445,0,0,0-.723,6.7c.1,4.142,1.448,8.2,5.472,10.65,2.568,1.566,6.423,3.054,9.447,2.6a13.744,13.744,0,0,0,2.271-.56c3.33-1.1,6.487-3.234,9.95-3.962,3.885-.817,10.967-1.974,14.093,1.372a1.848,1.848,0,0,1,.188.241,6.185,6.185,0,0,1,.59,3.441c-.109,3.214-1.137,7.381-1.094,9.093a7.839,7.839,0,0,0,1.389-.566c2.3-1.18,4.33-3.435,6.076-5.323a25.462,25.462,0,0,0,2.776-3.489A17.8,17.8,0,0,0-889.848,188.474Z" transform="translate(-345.289 -23.101)" fill="#3b455a"/>
    <path id="Trazado_8734" data-name="Trazado 8734" d="M-1440.592,410.921a7.753,7.753,0,0,1,1.188,4.29,7.752,7.752,0,0,0-1.161-4.931c-3.174-5.091-5.2-10.745-5.178-16.079C-1445.944,399.721-1443.891,405.624-1440.592,410.921Z" transform="translate(-119.819 -119.121)" fill="#d9a3a3"/>
    <path id="Trazado_8735" data-name="Trazado 8735" d="M-1376.292,396.789c-.253,5.123-2.825,9.993-5.632,14.911a7.781,7.781,0,0,0-1.039,3.939,7.818,7.818,0,0,1,1.012-3.284C-1379.021,407.228-1376.347,402.153-1376.292,396.789Z" transform="translate(-147.868 -120.277)" fill="#d9a3a3"/>
    <path id="Trazado_8736" data-name="Trazado 8736" d="M-932.868,264.423l-23.312,19.813-14.629-8.353q.535,2.341,1.012,4.752a96.3,96.3,0,0,1,1.344,18.224l5.35,5.191,7.338,2.367,31.258-24.927Z" transform="translate(-331.968 -61.152)" fill="#fff"/>
    <path id="Trazado_8737" data-name="Trazado 8737" d="M-1285.337,443.784h0V445.1h0v-1.314Z" transform="translate(-191.475 -141.269)" fill="#7db5db"/>
    <path id="Trazado_8738" data-name="Trazado 8738" d="M-1014.445,317.492l-12.954,7.2,5.1,7.192,8.346-.153,3.121-9.812Z" transform="translate(-306.691 -84.856)" fill="#eac1a4"/>
    <path id="Trazado_8739" data-name="Trazado 8739" d="M-999.986,325.494l-3.121,9.812h0Z" transform="translate(-317.542 -88.431)" fill="#eac1a4"/>
    <path id="Trazado_8740" data-name="Trazado 8740" d="M-1625.55,363.345c-1.219,22.381-2.788,47.383-4.7,56.695-3.012,14.627-7.528,43.317-7.528,43.317l28.609.994,32.7-2.581s-11.185-20.65-12.906-35.277c-.87-7.391-.531-25.1-.927-43.487-3.787.468-6.3.792-6.3.792Z" transform="translate(-34.045 -105.338)" fill="#7db5db"/>
    <path id="Trazado_8741" data-name="Trazado 8741" d="M-1580.01,323.048c-.717-11.256-2-21.444-4.35-28.078-7.314-20.65-8.848-23.35-17.761-23.72,0,0-9.343-2.523-10.634,18.558-.094,1.538-.193,3.252-.3,5.106l33.039,28.135Z" transform="translate(-45.092 -64.159)" fill="#7db5db"/>
    <path id="Trazado_8742" data-name="Trazado 8742" d="M-1478.958,371.348l-.15-1.245-1.564-1.006-6.013,3.439c-.174,1.8-.37,3.806-.544,5.542l8.1,2.947,4.948-3.749,0-5.662Z" transform="translate(-101.294 -107.907)" fill="#eac1a4"/>
    <path id="Trazado_8743" data-name="Trazado 8743" d="M-1623.059,310.456l-7.109,23.6,8.02,5.668c.556-10.211,1.041-19.872,1.452-27.253Z" transform="translate(-37.446 -81.714)" fill="#fff"/>
    <path id="Trazado_8744" data-name="Trazado 8744" d="M-1487.955,375.814l-.157,4.864.489.178c.174-1.736.37-3.744.544-5.542Z" transform="translate(-100.9 -110.684)" fill="#fff"/>
    <path id="Trazado_8745" data-name="Trazado 8745" d="M-901.033,307.337c-7.81-34.453-22.921-47.712-22.921-47.712l-25.259.936-13.491,46.7-37.532-11.188-3.121,9.812-.31.973,36.69,16.786-14.4,58.853c11.111,1.4,78.879,10.427,78.879,10.427S-893.082,342.419-901.033,307.337Z" transform="translate(-317.292 -59.008)" fill="#fff"/>
    <g id="Grupo_10003" data-name="Grupo 10003" transform="translate(-1288.269 203.369)">
      <path id="Trazado_8746" data-name="Trazado 8746" d="M-924.582,385.872l-7.264-3.323-10.564,42.26-2.177,13.93,33.084,4.353s-1.258-49-.893-57.221Z" transform="translate(944.587 -317.285)" fill="#305399"/>
      <path id="Trazado_8747" data-name="Trazado 8747" d="M-892.324,293.972c.642-9.34,3.138-24.313,1.215-29.372l-10.883,1.306-11.557,46.23,1.513.451Z" transform="translate(930.723 -264.6)" fill="#305399"/>
    </g>
    <path id="Trazado_8748" data-name="Trazado 8748" d="M-1346.794,245.548c-7.407-12.587-20.873-11.036-31.764-4.244a7.86,7.86,0,0,1-11.8-4.862,7.935,7.935,0,0,1-.221-1.809v-59.42c-16.227.732-32.013,5.621-47.163,13.048-4.074,2-8.08,4.18-12.049,6.427-27.856,15.776-43.353,40-42.039,75.484.738,19.917-8.13,34.414-21.23,46.6a51.1,51.1,0,0,0-6.662,7.037q-.384.523-.744,1.073h41.753a7.894,7.894,0,0,0,5.938-7.485,7.747,7.747,0,0,0-1.187-4.29c-3.3-5.3-5.352-11.2-5.151-16.72.213-5.834,2.944-11.24,9.414-15.042,10.21-6,24.218-2.137,29.873,8.279a16.506,16.506,0,0,1,2.117,8.195c-.055,5.364-2.73,10.439-5.659,15.566a7.811,7.811,0,0,0-1.012,3.284,7.894,7.894,0,0,0,5.785,8.213h48.016V278.724a7.973,7.973,0,0,1,.225-1.833,7.887,7.887,0,0,1,8.449-5.994,7.851,7.851,0,0,1,3.09,1,55.1,55.1,0,0,0,9.269,4.49c4.63,1.576,9.38,1.818,14.494-.962C-1344.643,269.765-1340.788,255.755-1346.794,245.548Z" transform="translate(-86.447 -21.303)" fill="#7db5db"/>
    <path id="Trazado_8749" data-name="Trazado 8749" d="M-1400.949,490.341a10.06,10.06,0,0,0-3.049,1.083,59.836,59.836,0,0,1-9.311,4.408c-4.629,1.576-9.38,1.818-14.494-.962-10.413-5.66-14.269-19.671-8.262-29.878,7.407-12.587,20.874-11.035,31.764-4.243a7.86,7.86,0,0,0,11.8-4.862l0-28.762,0-18.61h0V407.2h-.216v1.06h-48.016a7.894,7.894,0,0,1-5.785-8.213,7.78,7.78,0,0,1,1.039-3.939c2.807-4.918,5.379-9.789,5.632-14.911a16.5,16.5,0,0,0-2.117-8.195c-5.655-10.416-19.663-14.28-29.872-8.279-6.471,3.8-9.2,9.208-9.414,15.042-.025,5.335,2,10.988,5.177,16.079a7.751,7.751,0,0,1,1.161,4.931,7.894,7.894,0,0,1-5.938,7.485H-1522.6c-.138.211-.282.416-.416.634-3.6,5.888-2.861,10.267,2.516,13.973,3.446,2.374,7.081,4.414,10.1,7.493,4.6,4.7,4.9,7.475,1.388,13.29-3.958,6.545-3.936,6.812,2.144,11.463,1.632,1.248,3.359,2.187,1.067,4.549-3.373,3.475-2.166,6.866.739,9.4,4.076,3.554,4.69,8.114,3.924,13.212-.668,4.448-1.653,8.84-2.485,13.259-2.245,11.923.882,17.458,11.655,20.591,11.244,3.27,22.435.438,33.647-.645,7.516-.726,14.916-3.34,22.606-1.438,4.992,1.235,7.749,4.288,8.39,9.879.935,8.153,3.362,15.945,4.749,23.967,1.131,6.544,3.981,8.586,9.873,8.323,4.938-.221,12-.326,20.2-.357l0-59.517A7.887,7.887,0,0,0-1400.949,490.341Z" transform="translate(-84.318 -104.686)" fill="#587bc9"/>
    <path id="Trazado_8750" data-name="Trazado 8750" d="M-1233.585,593.874c7.036-.382,3.622-4.773.378-11.592-26.32-55.324,5.03-99.918,10.163-106.159a111.86,111.86,0,0,0,17.7-29.964h-29.715a7.863,7.863,0,0,0-4.061,11.566c6.785,10.895,8.329,24.362-4.262,31.762-10.21,6-24.218,2.137-29.873-8.279-4.648-8.564-.833-16.1,3.542-23.761a7.864,7.864,0,0,0-4.141-11.288h-48.6v45.562a7.963,7.963,0,0,1-.221,1.809v.194a7.862,7.862,0,0,1-11.775,4.75c-10.895-6.786-24.362-8.331-31.763,4.259-6,10.209-1.561,23.981,8.855,29.636a16.373,16.373,0,0,0,13.872,1.1,55.13,55.13,0,0,0,9.269-4.49,7.844,7.844,0,0,1,3.091-1,7.056,7.056,0,0,1,8.447,5.858v.136a7.977,7.977,0,0,1,.225,1.834v57.683C-1290.737,593.378-1242.23,594.344-1233.585,593.874Z" transform="translate(-154.142 -142.329)" fill="#305399"/>
  </g>
</svg>
